<svg width="48" height="88" viewBox="0 0 48 88" fill="none" xmlns="http://www.w3.org/2000/svg">
<path d="M42.1859 0.437988H5.74963C4.26353 0.439935 2.83886 1.03115 1.78803 2.08198C0.737201 3.13281 0.14599 4.55748 0.144043 6.04357V81.7189C0.14599 83.205 0.737201 84.6297 1.78803 85.6805C2.83886 86.7314 4.26353 87.3226 5.74963 87.3245H42.1859C43.672 87.3226 45.0967 86.7314 46.1475 85.6805C47.1983 84.6297 47.7896 83.205 47.7915 81.7189V6.04357C47.7896 4.55748 47.1983 3.13281 46.1475 2.08198C45.0967 1.03115 43.672 0.439935 42.1859 0.437988ZM30.5263 3.24078L29.738 6.04357H18.0556L17.3549 3.24078H30.5263ZM44.9887 81.7189C44.9877 82.462 44.6921 83.1743 44.1667 83.6998C43.6413 84.2252 42.929 84.5208 42.1859 84.5217H5.74963C5.00658 84.5208 4.29424 84.2252 3.76883 83.6998C3.24341 83.1743 2.94781 82.462 2.94683 81.7189V6.04357C2.94781 5.30052 3.24341 4.58819 3.76883 4.06277C4.29424 3.53736 5.00658 3.24175 5.74963 3.24078H14.4646L15.6014 7.78481C15.6772 8.08798 15.8522 8.35713 16.0985 8.54947C16.3448 8.74182 16.6483 8.84632 16.9608 8.84636H30.7996C31.105 8.84636 31.402 8.74659 31.6455 8.56224C31.889 8.37789 32.0656 8.11905 32.1484 7.8251L33.4377 3.24078H42.1859C42.929 3.24175 43.6413 3.53736 44.1667 4.06277C44.6921 4.58819 44.9877 5.30052 44.9887 6.04357V81.7189Z" fill="white"/>
<path d="M16.9607 78.9165H7.15092C6.77925 78.9165 6.4228 79.0641 6.15999 79.3269C5.89717 79.5898 5.74953 79.9462 5.74953 80.3179C5.74953 80.6896 5.89717 81.046 6.15999 81.3088C6.4228 81.5716 6.77925 81.7193 7.15092 81.7193H16.9607C17.3324 81.7193 17.6888 81.5716 17.9516 81.3088C18.2144 81.046 18.3621 80.6896 18.3621 80.3179C18.3621 79.9462 18.2144 79.5898 17.9516 79.3269C17.6888 79.0641 17.3324 78.9165 16.9607 78.9165Z" fill="white"/>
<path d="M22.5665 78.9165H21.1651C20.7935 78.9165 20.437 79.0641 20.1742 79.3269C19.9114 79.5898 19.7638 79.9462 19.7638 80.3179C19.7638 80.6896 19.9114 81.046 20.1742 81.3088C20.437 81.5716 20.7935 81.7193 21.1651 81.7193H22.5665C22.9382 81.7193 23.2947 81.5716 23.5575 81.3088C23.8203 81.046 23.9679 80.6896 23.9679 80.3179C23.9679 79.9462 23.8203 79.5898 23.5575 79.3269C23.2947 79.0641 22.9382 78.9165 22.5665 78.9165Z" fill="white"/>
<path d="M28.8929 35.6729C28.7351 35.5782 28.5602 35.5156 28.3782 35.4885C28.1961 35.4614 28.0106 35.4704 27.832 35.5151C27.6535 35.5597 27.4855 35.6391 27.3376 35.7486C27.1897 35.8582 27.0649 35.9958 26.9702 36.1536L18.5618 50.1676C18.3706 50.4863 18.3138 50.8679 18.404 51.2285C18.4941 51.5891 18.7238 51.899 19.0425 52.0903C19.3612 52.2815 19.7428 52.3383 20.1034 52.2481C20.464 52.158 20.774 51.9283 20.9652 51.6096L29.3736 37.5956C29.4683 37.4378 29.531 37.2629 29.5581 37.0809C29.5851 36.8989 29.5761 36.7133 29.5315 36.5347C29.4868 36.3562 29.4075 36.1882 29.2979 36.0403C29.1884 35.8924 29.0507 35.7676 28.8929 35.6729Z" fill="white"/>
<path d="M33.4707 35.9985C33.3557 35.8548 33.2135 35.7351 33.0522 35.6464C32.891 35.5576 32.7138 35.5015 32.5309 35.4812C32.1614 35.4403 31.7907 35.5478 31.5005 35.7801C31.2103 36.0124 31.0242 36.3504 30.9833 36.7199C30.9423 37.0894 31.0498 37.46 31.2821 37.7502L36.187 43.8813L31.2821 50.0125C31.0498 50.3027 30.9423 50.6733 30.9833 51.0428C31.0242 51.4123 31.2103 51.7503 31.5005 51.9826C31.7907 52.2149 32.1614 52.3224 32.5309 52.2815C32.9003 52.2405 33.2384 52.0544 33.4707 51.7642L39.0763 44.7572C39.2753 44.5087 39.3837 44.1998 39.3837 43.8813C39.3837 43.5629 39.2753 43.254 39.0763 43.0055L33.4707 35.9985Z" fill="white"/>
<path d="M14.4653 51.7642C14.6976 52.0544 15.0357 52.2405 15.4051 52.2815C15.7746 52.3224 16.1452 52.2149 16.4355 51.9826C16.7257 51.7503 16.9118 51.4123 16.9527 51.0428C16.9937 50.6733 16.8862 50.3027 16.6539 50.0125L11.749 43.8813L16.6539 37.7502C16.7689 37.6065 16.8545 37.4416 16.9058 37.2648C16.9571 37.088 16.973 36.9029 16.9527 36.7199C16.9324 36.537 16.8763 36.3598 16.7876 36.1985C16.6988 36.0373 16.5792 35.8951 16.4355 35.7801C16.2918 35.665 16.1268 35.5794 15.95 35.5282C15.7732 35.4769 15.5881 35.4609 15.4051 35.4812C15.2222 35.5015 15.045 35.5576 14.8838 35.6464C14.7225 35.7351 14.5803 35.8548 14.4653 35.9985L8.8597 43.0055C8.6607 43.254 8.55227 43.5629 8.55227 43.8813C8.55227 44.1997 8.6607 44.5087 8.8597 44.7572L14.4653 51.7642Z" fill="white"/>
</svg>
