<svg width="471" height="326" viewBox="0 0 471 326" fill="none" xmlns="http://www.w3.org/2000/svg">
<path d="M125.071 185.175C142.499 213.542 174.388 213.764 160.295 229.28C149.612 241.041 114.273 210.854 104.988 191.846C98.6306 178.833 91.7569 165.915 89.0596 147.882C85.1279 121.595 90.1846 83.4291 97.9309 81.2089L119.85 82.0257C119.85 82.0257 125.302 97.4976 132.06 118.663C138.766 139.664 151.096 169.103 136.504 171.859C123.61 174.295 120.625 155.668 115.274 139.722C109.547 122.656 105.493 102.1 105.493 102.1C105.493 102.1 107.494 156.565 125.071 185.175Z" fill="#E6E3E3"/>
<path d="M125.071 185.175C142.499 213.542 174.388 213.764 160.295 229.28C149.612 241.041 114.273 210.854 104.988 191.846C98.6306 178.833 91.7569 165.915 89.0596 147.882C85.1279 121.595 90.1846 83.4291 97.9309 81.2089L119.85 82.0257C119.85 82.0257 125.302 97.4976 132.06 118.663C138.766 139.664 151.096 169.103 136.504 171.859C123.61 174.295 120.625 155.668 115.274 139.722C109.547 122.656 105.493 102.1 105.493 102.1C105.493 102.1 107.494 156.565 125.071 185.175Z" fill="url(#paint0_linear)"/>
<path d="M144.379 233.302C158.515 217.796 126.485 217.541 108.943 189.146C91.253 160.509 95.3445 105.874 95.3445 105.874C95.3445 105.874 98.8268 123.709 104.601 140.786C109.996 156.742 113.292 174.025 126.24 171.603C140.892 168.861 133.003 150.015 126.24 129.001C119.425 107.822 113.526 86.1717 113.526 86.1717C113.526 86.1717 135.539 75.092 138.974 55.5792C142.409 36.0664 132.023 19.1427 111.704 12.3419C105.051 10.1151 98.0812 9.22548 91.3374 9.65677C75.1896 10.6895 60.3357 19.2954 54.214 35.2487C48.2143 50.884 51.7682 62.0924 58.0345 69.8714C67.0104 81.0139 81.5515 85.1197 81.5515 85.1197C73.7738 87.3324 68.7433 125.504 72.7258 151.803C75.4579 169.845 82.3784 182.774 88.7801 195.798C98.1306 214.822 133.664 245.055 144.379 233.302Z" fill="white"/>
<path d="M144.379 233.302C158.515 217.796 126.485 217.541 108.943 189.146C91.253 160.509 95.3445 105.874 95.3445 105.874C95.3445 105.874 98.8268 123.709 104.601 140.786C109.996 156.742 113.292 174.025 126.24 171.603C140.892 168.861 133.003 150.015 126.24 129.001C119.425 107.822 113.526 86.1717 113.526 86.1717C113.526 86.1717 135.539 75.092 138.974 55.5792C142.409 36.0664 132.023 19.1427 111.704 12.3419C105.051 10.1151 98.0812 9.22548 91.3374 9.65677C75.1896 10.6895 60.3357 19.2954 54.214 35.2487C48.2143 50.884 51.7682 62.0924 58.0345 69.8714C67.0104 81.0139 81.5515 85.1197 81.5515 85.1197C73.7738 87.3324 68.7433 125.504 72.7258 151.803C75.4579 169.845 82.3784 182.774 88.7801 195.798C98.1306 214.822 133.664 245.055 144.379 233.302Z" fill="url(#paint1_linear)"/>
<path d="M144.379 233.302C158.515 217.796 126.485 217.541 108.943 189.146C91.253 160.509 95.3445 105.874 95.3445 105.874C95.3445 105.874 98.8268 123.709 104.601 140.786C109.996 156.742 113.292 174.025 126.24 171.603C140.892 168.861 133.003 150.015 126.24 129.001C119.425 107.822 113.526 86.1717 113.526 86.1717C113.526 86.1717 135.539 75.092 138.974 55.5792C142.409 36.0664 132.023 19.1427 111.704 12.3419C105.051 10.1151 98.0812 9.22548 91.3374 9.65677C75.1896 10.6895 60.3357 19.2954 54.214 35.2487C48.2143 50.884 51.7682 62.0924 58.0345 69.8714C67.0104 81.0139 81.5515 85.1197 81.5515 85.1197C73.7738 87.3324 68.7433 125.504 72.7258 151.803C75.4579 169.845 77.7685 179.755 87.4844 194.411C102.24 216.669 133.664 245.055 144.379 233.302Z" fill="white"/>
<path d="M144.379 233.302C158.515 217.796 126.485 217.541 108.943 189.146C91.253 160.509 95.3445 105.874 95.3445 105.874C95.3445 105.874 98.8268 123.709 104.601 140.786C109.996 156.742 113.292 174.025 126.24 171.603C140.892 168.861 133.003 150.015 126.24 129.001C119.425 107.822 113.526 86.1717 113.526 86.1717C113.526 86.1717 135.539 75.092 138.974 55.5792C142.409 36.0664 132.023 19.1427 111.704 12.3419C105.051 10.1151 98.0812 9.22548 91.3374 9.65677C75.1896 10.6895 60.3357 19.2954 54.214 35.2487C48.2143 50.884 51.7682 62.0924 58.0345 69.8714C67.0104 81.0139 81.5515 85.1197 81.5515 85.1197C73.7738 87.3324 68.7433 125.504 72.7258 151.803C75.4579 169.845 77.7685 179.755 87.4844 194.411C102.24 216.669 133.664 245.055 144.379 233.302Z" fill="url(#paint2_linear)"/>
<path d="M99.8535 47.4409C107.719 29.7539 88.4662 9.43345 88.4662 9.43345C73.5703 8.99619 58.6562 18.4396 52.0108 33.2218C46.0874 46.398 47.7154 61.5883 56.1712 69.4959C56.1712 69.4959 68.8315 69.3621 74.7212 67.6739L74.8332 67.6418C84.4846 64.8756 93.2125 62.374 99.8535 47.4409Z" fill="#68458C"/>
<path d="M99.8535 47.4409C107.719 29.7539 88.4662 9.43345 88.4662 9.43345C73.5703 8.99619 58.6562 18.4396 52.0108 33.2218C46.0874 46.398 47.7154 61.5883 56.1712 69.4959C56.1712 69.4959 68.8315 69.3621 74.7212 67.6739L74.8332 67.6418C84.4846 64.8756 93.2125 62.374 99.8535 47.4409Z" fill="url(#paint3_linear)"/>
<g filter="url(#filter0_d)">
<path d="M90.6313 52.8086C92.6603 50.1423 96.7242 48.7697 99.4734 50.8285C101.981 52.7059 102.677 56.4394 100.987 58.9662C99.2281 61.5953 95.0081 62.7043 91.9988 61.3122C88.7201 59.7955 88.5339 55.5648 90.6313 52.8086Z" fill="white"/>
<path d="M90.6313 52.8086C92.6603 50.1423 96.7242 48.7697 99.4734 50.8285C101.981 52.7059 102.677 56.4394 100.987 58.9662C99.2281 61.5953 95.0081 62.7043 91.9988 61.3122C88.7201 59.7955 88.5339 55.5648 90.6313 52.8086Z" fill="url(#paint4_linear)"/>
</g>
<path d="M115.299 129.871C115.299 129.871 194.603 196.94 256.365 203.085C317.802 209.197 346.638 159.652 408.378 159.652C467.011 159.652 491.459 181.999 495.937 240.24" stroke="#EEEDEF" stroke-width="8.29216"/>
<defs>
<filter id="filter0_d" x="87.5856" y="48.1631" width="19.34" height="18.767" filterUnits="userSpaceOnUse" color-interpolation-filters="sRGB">
<feFlood flood-opacity="0" result="BackgroundImageFix"/>
<feColorMatrix in="SourceAlpha" type="matrix" values="0 0 0 0 0 0 0 0 0 0 0 0 0 0 0 0 0 0 127 0"/>
<feOffset dx="1.67123" dy="1.67123"/>
<feGaussianBlur stdDeviation="1.67123"/>
<feColorMatrix type="matrix" values="0 0 0 0 0 0 0 0 0 0 0 0 0 0 0 0 0 0 0.25 0"/>
<feBlend mode="normal" in2="BackgroundImageFix" result="effect1_dropShadow"/>
<feBlend mode="normal" in="SourceGraphic" in2="effect1_dropShadow" result="shape"/>
</filter>
<linearGradient id="paint0_linear" x1="371.082" y1="166.899" x2="69.0628" y2="51.1572" gradientUnits="userSpaceOnUse">
<stop offset="0.274885" stop-color="#141A40"/>
<stop offset="1" stop-color="white" stop-opacity="0"/>
</linearGradient>
<linearGradient id="paint1_linear" x1="603.266" y1="373.391" x2="108.601" y2="-75.9928" gradientUnits="userSpaceOnUse">
<stop stop-color="#141A40"/>
<stop offset="1" stop-color="white" stop-opacity="0"/>
</linearGradient>
<linearGradient id="paint2_linear" x1="122.531" y1="14.7259" x2="109.865" y2="132.03" gradientUnits="userSpaceOnUse">
<stop offset="0.228124" stop-color="#6E6F73" stop-opacity="0.29"/>
<stop offset="1" stop-color="white" stop-opacity="0"/>
</linearGradient>
<linearGradient id="paint3_linear" x1="-3.08745" y1="-57.6019" x2="69.2802" y2="47.2607" gradientUnits="userSpaceOnUse">
<stop stop-color="#7C89DB"/>
<stop offset="1" stop-color="#141A40"/>
</linearGradient>
<linearGradient id="paint4_linear" x1="122.898" y1="103.974" x2="85.665" y2="41.2957" gradientUnits="userSpaceOnUse">
<stop stop-color="#141A40"/>
<stop offset="1" stop-color="white" stop-opacity="0"/>
</linearGradient>
</defs>
</svg>
