<svg width="476" height="326" viewBox="0 0 476 326" fill="none" xmlns="http://www.w3.org/2000/svg">
<path d="M125.586 185.264C143.015 213.632 174.904 213.853 160.81 229.37C150.128 241.13 114.789 210.943 105.503 191.936C99.1463 178.922 92.2726 166.004 89.5753 147.971C85.6435 121.684 90.7002 83.5186 98.4465 81.2984L120.365 82.1152C120.365 82.1152 125.817 97.5871 132.576 118.752C139.282 139.753 151.611 169.193 137.02 171.949C124.126 174.384 121.141 155.757 115.79 139.811C110.062 122.746 106.008 102.189 106.008 102.189C106.008 102.189 108.01 156.655 125.586 185.264Z" fill="#E6E3E3"/>
<path d="M125.586 185.264C143.015 213.632 174.904 213.853 160.81 229.37C150.128 241.13 114.789 210.943 105.503 191.936C99.1463 178.922 92.2726 166.004 89.5753 147.971C85.6435 121.684 90.7002 83.5186 98.4465 81.2984L120.365 82.1152C120.365 82.1152 125.817 97.5871 132.576 118.752C139.282 139.753 151.611 169.193 137.02 171.949C124.126 174.384 121.141 155.757 115.79 139.811C110.062 122.746 106.008 102.189 106.008 102.189C106.008 102.189 108.01 156.655 125.586 185.264Z" fill="url(#paint0_linear)"/>
<path d="M115.815 129.96C115.815 129.96 195.118 197.029 256.881 203.174C318.318 209.287 347.153 159.742 408.893 159.742C467.527 159.742 491.974 182.088 496.452 240.329" stroke="#EEEDEF" stroke-width="8.29216"/>
<path d="M144.894 233.392C159.031 217.886 127 217.63 109.459 189.235C91.7687 160.599 95.8602 105.963 95.8602 105.963C95.8602 105.963 99.3425 123.798 105.117 140.875C110.512 156.831 113.808 174.115 126.755 171.692C141.408 168.951 133.518 150.105 126.756 129.091C119.941 107.912 114.042 86.2612 114.042 86.2612C114.042 86.2612 136.055 75.1814 139.49 55.6686C142.924 36.1558 132.539 19.2322 112.22 12.4314C105.566 10.2045 98.5968 9.31496 91.8531 9.74625C75.7052 10.779 60.8513 19.3848 54.7296 35.3382C48.7299 50.9735 52.2838 62.1819 58.5502 69.9608C67.5261 81.1034 82.0672 85.2092 82.0672 85.2092C74.2894 87.4219 69.2589 125.594 73.2414 151.893C75.9735 169.934 82.894 182.863 89.2958 195.888C98.6462 214.911 134.18 245.145 144.894 233.392Z" fill="white"/>
<path d="M144.894 233.392C159.031 217.886 127 217.63 109.459 189.235C91.7687 160.599 95.8602 105.963 95.8602 105.963C95.8602 105.963 99.3425 123.798 105.117 140.875C110.512 156.831 113.808 174.115 126.755 171.692C141.408 168.951 133.518 150.105 126.756 129.091C119.941 107.912 114.042 86.2612 114.042 86.2612C114.042 86.2612 136.055 75.1814 139.49 55.6686C142.924 36.1558 132.539 19.2322 112.22 12.4314C105.566 10.2045 98.5968 9.31496 91.8531 9.74625C75.7052 10.779 60.8513 19.3848 54.7296 35.3382C48.7299 50.9735 52.2838 62.1819 58.5502 69.9608C67.5261 81.1034 82.0672 85.2092 82.0672 85.2092C74.2894 87.4219 69.2589 125.594 73.2414 151.893C75.9735 169.934 82.894 182.863 89.2958 195.888C98.6462 214.911 134.18 245.145 144.894 233.392Z" fill="url(#paint1_linear)"/>
<path d="M144.894 233.392C159.031 217.886 127 217.63 109.459 189.235C91.7687 160.599 95.8602 105.963 95.8602 105.963C95.8602 105.963 99.3425 123.798 105.117 140.875C110.512 156.831 113.808 174.115 126.755 171.692C141.408 168.951 133.518 150.105 126.756 129.091C119.941 107.912 114.042 86.2612 114.042 86.2612C114.042 86.2612 136.055 75.1814 139.49 55.6686C142.924 36.1558 132.539 19.2322 112.22 12.4314C105.566 10.2045 98.5968 9.31496 91.8531 9.74625C75.7052 10.779 60.8513 19.3848 54.7296 35.3382C48.7299 50.9735 52.2838 62.1819 58.5502 69.9608C67.5261 81.1034 82.0672 85.2092 82.0672 85.2092C74.2894 87.4219 69.2589 125.594 73.2414 151.893C75.9735 169.934 82.894 182.863 89.2958 195.888C98.6462 214.911 134.18 245.145 144.894 233.392Z" fill="white"/>
<path d="M144.894 233.392C159.031 217.886 127 217.63 109.459 189.235C91.7687 160.599 95.8602 105.963 95.8602 105.963C95.8602 105.963 99.3425 123.798 105.117 140.875C110.512 156.831 113.808 174.115 126.755 171.692C141.408 168.951 133.518 150.105 126.756 129.091C119.941 107.912 114.042 86.2612 114.042 86.2612C114.042 86.2612 136.055 75.1814 139.49 55.6686C142.924 36.1558 132.539 19.2322 112.22 12.4314C105.566 10.2045 98.5968 9.31496 91.8531 9.74625C75.7052 10.779 60.8513 19.3848 54.7296 35.3382C48.7299 50.9735 52.2838 62.1819 58.5502 69.9608C67.5261 81.1034 82.0672 85.2092 82.0672 85.2092C74.2894 87.4219 69.2589 125.594 73.2414 151.893C75.9735 169.934 82.894 182.863 89.2958 195.888C98.6462 214.911 134.18 245.145 144.894 233.392Z" fill="url(#paint2_linear)"/>
<path d="M100.369 47.5304C108.235 29.8433 88.9818 9.52293 88.9818 9.52293C74.086 9.08567 59.1719 18.529 52.5265 33.3113C46.6031 46.4874 48.231 61.6778 56.6868 69.5854C56.6868 69.5854 69.3471 69.4516 75.2368 67.7634L75.3489 67.7313C85.0002 64.9651 93.7281 62.4635 100.369 47.5304Z" fill="#68458C"/>
<path d="M100.369 47.5304C108.235 29.8433 88.9818 9.52293 88.9818 9.52293C74.086 9.08567 59.1719 18.529 52.5265 33.3113C46.6031 46.4874 48.231 61.6778 56.6868 69.5854C56.6868 69.5854 69.3471 69.4516 75.2368 67.7634L75.3489 67.7313C85.0002 64.9651 93.7281 62.4635 100.369 47.5304Z" fill="url(#paint3_linear)"/>
<g filter="url(#filter0_d)">
<path d="M91.147 52.8981C93.1759 50.2318 97.2398 48.8592 99.9891 50.9179C102.496 52.7954 103.192 56.5288 101.502 59.0557C99.7438 61.6848 95.5237 62.7937 92.5144 61.4017C89.2358 59.885 89.0495 55.6543 91.147 52.8981Z" fill="white"/>
<path d="M91.147 52.8981C93.1759 50.2318 97.2398 48.8592 99.9891 50.9179C102.496 52.7954 103.192 56.5288 101.502 59.0557C99.7438 61.6848 95.5237 62.7937 92.5144 61.4017C89.2358 59.885 89.0495 55.6543 91.147 52.8981Z" fill="url(#paint4_linear)"/>
</g>
<defs>
<filter id="filter0_d" x="88.1012" y="48.2526" width="19.34" height="18.767" filterUnits="userSpaceOnUse" color-interpolation-filters="sRGB">
<feFlood flood-opacity="0" result="BackgroundImageFix"/>
<feColorMatrix in="SourceAlpha" type="matrix" values="0 0 0 0 0 0 0 0 0 0 0 0 0 0 0 0 0 0 127 0"/>
<feOffset dx="1.67123" dy="1.67123"/>
<feGaussianBlur stdDeviation="1.67123"/>
<feColorMatrix type="matrix" values="0 0 0 0 0 0 0 0 0 0 0 0 0 0 0 0 0 0 0.25 0"/>
<feBlend mode="normal" in2="BackgroundImageFix" result="effect1_dropShadow"/>
<feBlend mode="normal" in="SourceGraphic" in2="effect1_dropShadow" result="shape"/>
</filter>
<linearGradient id="paint0_linear" x1="371.597" y1="166.989" x2="69.5784" y2="51.2466" gradientUnits="userSpaceOnUse">
<stop offset="0.274885" stop-color="#141A40"/>
<stop offset="1" stop-color="white" stop-opacity="0"/>
</linearGradient>
<linearGradient id="paint1_linear" x1="603.782" y1="373.48" x2="109.116" y2="-75.9034" gradientUnits="userSpaceOnUse">
<stop stop-color="#141A40"/>
<stop offset="1" stop-color="white" stop-opacity="0"/>
</linearGradient>
<linearGradient id="paint2_linear" x1="123.047" y1="14.8154" x2="110.381" y2="132.12" gradientUnits="userSpaceOnUse">
<stop offset="0.228124" stop-color="#6E6F73" stop-opacity="0.29"/>
<stop offset="1" stop-color="white" stop-opacity="0"/>
</linearGradient>
<linearGradient id="paint3_linear" x1="-2.57183" y1="-57.5124" x2="69.7958" y2="47.3501" gradientUnits="userSpaceOnUse">
<stop stop-color="#7C89DB"/>
<stop offset="1" stop-color="#141A40"/>
</linearGradient>
<linearGradient id="paint4_linear" x1="123.413" y1="104.063" x2="86.1807" y2="41.3851" gradientUnits="userSpaceOnUse">
<stop stop-color="#141A40"/>
<stop offset="1" stop-color="white" stop-opacity="0"/>
</linearGradient>
</defs>
</svg>
