<svg width="86" height="86" viewBox="0 0 86 86" fill="none" xmlns="http://www.w3.org/2000/svg">
<path d="M23.1727 33.2569H20.3306V36.099H23.1727V33.2569Z" fill="white"/>
<path d="M37.3838 33.2569H34.5417V36.099H37.3838V33.2569Z" fill="white"/>
<path d="M84.4808 48.9025L78.9287 48.1096C78.6647 47.3332 78.3529 46.5738 77.9951 45.8359L81.3545 41.3567C81.5597 41.083 81.6593 40.7445 81.635 40.4033C81.6107 40.0622 81.4642 39.7412 81.2223 39.4993L75.1927 33.4697C74.9611 33.2397 74.6566 33.0976 74.3316 33.0676V19.3884C75.6612 18.3239 76.7346 16.9742 77.4725 15.4391C78.2104 13.904 78.5939 12.2228 78.5948 10.5195C78.6078 8.36586 78.0024 6.25372 76.8504 4.43398C75.6985 2.61425 74.0484 1.16339 72.0962 0.253741C71.8797 0.151476 71.6408 0.105604 71.4017 0.120385C71.1627 0.135166 70.9313 0.210121 70.729 0.338287C70.5266 0.466453 70.36 0.643673 70.2445 0.853483C70.129 1.06329 70.0684 1.29889 70.0684 1.53839V9.49636L67.2262 10.4442L64.3841 9.49636V1.53839C64.3831 1.29937 64.3218 1.06447 64.2059 0.855431C64.09 0.646387 63.9233 0.46995 63.7211 0.342445C63.519 0.21494 63.2879 0.140487 63.0493 0.125976C62.8108 0.111464 62.5724 0.157363 62.3562 0.259425C60.405 1.16867 58.7555 2.61864 57.6036 4.43727C56.4517 6.2559 55.8458 8.36683 55.8577 10.5195C55.8586 12.2228 56.2421 13.904 56.98 15.4391C57.7179 16.9742 58.7913 18.3239 60.1209 19.3884V28.9934H55.8577C55.5157 28.9933 55.1852 29.1166 54.9268 29.3406C54.6684 29.5645 54.4994 29.8742 54.4508 30.2127L53.5314 36.6487L56.3451 37.0508L57.0898 31.8355H63.152L63.8967 37.0508C63.9355 37.321 64.0512 37.5743 64.2301 37.7805C64.4091 37.9866 64.6436 38.1369 64.9056 38.2133C66.0901 38.5555 67.2337 39.0258 68.3162 39.6159C68.5557 39.7472 68.8279 39.8067 69.1004 39.7873C69.3728 39.7679 69.6339 39.6704 69.8524 39.5064L74.0601 36.3517L78.3461 40.6376L75.1842 44.8454C75.0203 45.0638 74.9228 45.3249 74.9034 45.5974C74.884 45.8698 74.9435 46.1421 75.0748 46.3816C75.6648 47.4641 76.1352 48.6077 76.4774 49.7921C76.5538 50.0542 76.704 50.2887 76.9102 50.4676C77.1163 50.6465 77.3696 50.7623 77.6398 50.8011L82.8551 51.5457V57.608L77.6398 58.3526C77.3696 58.3914 77.1163 58.5072 76.9102 58.6861C76.704 58.865 76.5538 59.0995 76.4774 59.3616C76.1352 60.546 75.6648 61.6896 75.0748 62.7721C74.9435 63.0116 74.884 63.2839 74.9034 63.5563C74.9228 63.8288 75.0203 64.0899 75.1842 64.3083L78.339 68.5161L74.053 72.802L69.8481 69.6359C69.6296 69.4719 69.3686 69.3744 69.0961 69.355C68.8237 69.3356 68.5514 69.3951 68.3119 69.5265C67.2294 70.1165 66.0858 70.5868 64.9014 70.9291C64.6393 71.0054 64.4048 71.1557 64.2259 71.3618C64.047 71.568 63.9312 71.8213 63.8924 72.0915L63.152 77.3096H57.2788V71.3C57.2778 69.7987 57.0624 68.3052 56.6393 66.8648C59.346 67.6572 62.2375 67.544 64.8741 66.5424C67.5106 65.5408 69.7479 63.7057 71.2458 61.3159C72.7437 58.9262 73.4202 56.1127 73.1725 53.3033C72.9248 50.4938 71.7663 47.8421 69.8734 45.7514C67.9804 43.6606 65.4565 42.2453 62.6854 41.7205C59.9142 41.1957 57.0476 41.5903 54.5212 42.8441C51.9949 44.098 49.9472 46.1425 48.6894 48.6669C47.4316 51.1913 47.0326 54.0573 47.553 56.8292C47.5189 56.815 47.4862 56.798 47.4521 56.7852L35.9628 52.1895V50.0053C37.8617 49.0338 39.5436 47.6869 40.9067 46.0462H44.4892C45.6198 46.0462 46.7042 45.597 47.5037 44.7975C48.3032 43.998 48.7524 42.9137 48.7524 41.783V38.6794C49.5807 38.3865 50.2984 37.8449 50.8071 37.1286C51.3159 36.4122 51.5909 35.5562 51.5945 34.6777V30.4145C51.5909 29.5359 51.3159 28.6799 50.8071 27.9635C50.2984 27.2472 49.5807 26.7056 48.7524 26.4127V24.7302C48.7524 19.4537 46.6563 14.3934 42.9253 10.6623C39.1943 6.93133 34.1339 4.83526 28.8574 4.83526C23.581 4.83526 18.5206 6.93133 14.7896 10.6623C11.0586 14.3934 8.96251 19.4537 8.96251 24.7302V26.4127C8.13416 26.7056 7.41652 27.2472 6.90778 27.9635C6.39903 28.6799 6.12402 29.5359 6.12038 30.4145V34.6777C6.12038 35.8083 6.56954 36.8927 7.36904 37.6922C8.16855 38.4917 9.25291 38.9409 10.3836 38.9409H13.2257C13.3167 38.9409 13.4048 38.9266 13.4943 38.921C13.9312 41.2771 14.9029 43.5016 16.3345 45.4232C17.7661 47.3448 19.6195 48.9124 21.7521 50.0053V52.1895L10.2628 56.7852C7.3561 57.9371 4.8639 59.9381 3.11106 62.5271C1.35822 65.1162 0.426063 68.1733 0.436116 71.3V84.415C0.436116 84.7919 0.585835 85.1533 0.852336 85.4198C1.11884 85.6863 1.48029 85.836 1.85718 85.836H55.8577C56.2346 85.836 56.5961 85.6863 56.8626 85.4198C57.1291 85.1533 57.2788 84.7919 57.2788 84.415V80.1518H64.3841C64.7261 80.1518 65.0566 80.0286 65.315 79.8046C65.5734 79.5806 65.7424 79.271 65.791 78.9325L66.5839 73.3804C67.3603 73.1163 68.1197 72.8045 68.8576 72.4468L73.3368 75.8062C73.6105 76.0113 73.949 76.1109 74.2902 76.0867C74.6313 76.0624 74.9523 75.9159 75.1942 75.674L81.2237 69.6444C81.4656 69.4026 81.6121 69.0816 81.6364 68.7404C81.6607 68.3992 81.5611 68.0607 81.3559 67.7871L77.9965 63.3079C78.3543 62.5699 78.6661 61.8106 78.9301 61.0342L84.4822 60.2412C84.8202 60.1924 85.1293 60.0235 85.353 59.7654C85.5766 59.5073 85.6999 59.1773 85.7001 58.8358V50.3094C85.7001 49.9674 85.5769 49.6369 85.3529 49.3785C85.129 49.1201 84.8193 48.9511 84.4808 48.9025ZM68.8491 36.6984C68.7823 36.6657 68.707 36.6444 68.6402 36.6131V19.0459H65.8052V30.315L65.791 30.2127C65.7424 29.8742 65.5734 29.5645 65.315 29.3406C65.0566 29.1166 64.7261 28.9933 64.3841 28.9934H62.963V18.6764C62.9631 18.4472 62.9076 18.2214 62.8015 18.0183C62.6953 17.8151 62.5416 17.6406 62.3534 17.5098C61.297 16.7743 60.4209 15.8092 59.7907 14.6869C59.1604 13.5646 58.7925 12.3141 58.7144 11.0293C58.6363 9.74454 58.8502 8.45874 59.3399 7.26836C59.8296 6.07799 60.5824 5.01393 61.542 4.15599V10.5195C61.5419 10.8179 61.6357 11.1087 61.8102 11.3508C61.9847 11.5928 62.2309 11.7738 62.514 11.8681L66.7772 13.2892C67.0687 13.3863 67.3838 13.3863 67.6753 13.2892L71.9385 11.8681C72.2216 11.7738 72.4678 11.5928 72.6423 11.3508C72.8167 11.1087 72.9106 10.8179 72.9105 10.5195V4.15599C73.8708 5.01391 74.6244 6.07822 75.1146 7.26902C75.6047 8.45983 75.8188 9.74619 75.7407 11.0316C75.6627 12.3169 75.2944 13.5679 74.6637 14.6907C74.033 15.8134 73.1562 16.7786 72.0991 17.514C71.9115 17.6445 71.7581 17.8183 71.652 18.0206C71.5459 18.223 71.4901 18.4479 71.4894 18.6764V34.7245L68.8491 36.6984ZM50.1734 54.5726C50.1578 52.3506 50.8813 50.1865 52.2301 48.4206C53.5789 46.6548 55.4765 45.3875 57.6244 44.8181C59.7722 44.2486 62.0484 44.4094 64.0949 45.2751C66.1413 46.1408 67.8419 47.6623 68.9291 49.6002C70.0163 51.5381 70.4284 53.7825 70.1006 55.9802C69.7727 58.1779 68.7236 60.2043 67.1181 61.7405C65.5127 63.2767 63.4421 64.2357 61.2321 64.4664C59.022 64.6971 56.798 64.1866 54.9099 63.0151C53.9275 61.4414 52.6708 60.0567 51.1995 58.9267C50.5234 57.5749 50.1721 56.084 50.1734 54.5726ZM44.4892 43.2041H42.764C43.4565 41.8553 43.9473 40.4122 44.2206 38.921C44.3101 38.921 44.3982 38.9409 44.4892 38.9409H45.9102V41.783C45.9102 42.1599 45.7605 42.5213 45.494 42.7878C45.2275 43.0543 44.8661 43.2041 44.4892 43.2041ZM41.647 27.5723C40.9855 27.5707 40.3333 27.4159 39.7416 27.12C39.1499 26.8242 38.6347 26.3953 38.2365 25.867L35.6786 22.4565C35.5644 22.3042 35.4207 22.1765 35.2562 22.0808C35.0917 21.9851 34.9096 21.9234 34.7208 21.8994C34.5319 21.8762 34.3403 21.8908 34.1571 21.9423C33.9739 21.9937 33.8027 22.0811 33.6535 22.1993L28.8844 26.0091C27.6261 27.0161 26.0638 27.5671 24.4521 27.5723H16.0678V26.1513C16.0678 22.7592 17.4153 19.5062 19.8138 17.1076C22.2123 14.7091 25.4654 13.3617 28.8574 13.3617C32.2495 13.3617 35.5025 14.7091 37.9011 17.1076C40.2996 19.5062 41.647 22.7592 41.647 26.1513V27.5723ZM48.7524 34.6777C48.7524 35.0545 48.6027 35.416 48.3362 35.6825C48.0697 35.949 47.7082 36.0987 47.3313 36.0987H44.4892V28.9934H47.3313C47.7082 28.9934 48.0697 29.1431 48.3362 29.4096C48.6027 29.6761 48.7524 30.0376 48.7524 30.4145V34.6777ZM28.8574 7.67739C33.3786 7.68228 37.7132 9.48048 40.9102 12.6774C44.1072 15.8744 45.9053 20.209 45.9102 24.7302V26.1513H44.4892C44.4892 22.0055 42.8423 18.0295 39.9107 15.098C36.9792 12.1664 33.0032 10.5195 28.8574 10.5195C24.7117 10.5195 20.7357 12.1664 17.8041 15.098C14.8726 18.0295 13.2257 22.0055 13.2257 26.1513H11.8046V24.7302C11.8095 20.209 13.6077 15.8744 16.8047 12.6774C20.0017 9.48048 24.3363 7.68228 28.8574 7.67739ZM10.3836 36.0987C10.0067 36.0987 9.64524 35.949 9.37874 35.6825C9.11223 35.416 8.96251 35.0545 8.96251 34.6777V30.4145C8.96251 30.0376 9.11223 29.6761 9.37874 29.4096C9.64524 29.1431 10.0067 28.9934 10.3836 28.9934H13.2257V36.0987H10.3836ZM16.0678 36.0987V30.4145H24.4521C26.7101 30.4114 28.9002 29.643 30.665 28.2345L34.2902 25.3341L35.9628 27.5723C36.6265 28.4527 37.4851 29.1675 38.4713 29.6606C39.4575 30.1537 40.5445 30.4117 41.647 30.4145V36.0987C41.6494 38.6296 40.8963 41.1037 39.4842 43.2041H28.8574V46.0462H36.8779C35.0013 47.5636 32.7332 48.5184 30.3363 48.8002C27.9394 49.0819 25.5118 48.6791 23.3344 47.6383C21.157 46.5974 19.3189 44.9612 18.0329 42.919C16.7469 40.8768 16.0656 38.5121 16.0678 36.0987ZM28.8574 51.7304C30.2997 51.7269 31.7344 51.5232 33.1206 51.1251V53.1515C33.1206 54.2822 32.6715 55.3665 31.872 56.166C31.0725 56.9656 29.9881 57.4147 28.8574 57.4147C27.7268 57.4147 26.6424 56.9656 25.8429 56.166C25.0434 55.3665 24.5942 54.2822 24.5942 53.1515V51.1251C25.9805 51.5232 27.4152 51.7269 28.8574 51.7304ZM54.4366 82.9939H45.9102V67.3622H43.0681V82.9939H14.6468V67.3622H11.8046V82.9939H3.27825V71.3C3.26997 68.7417 4.03267 66.2404 5.46689 64.122C6.90111 62.0036 8.94032 60.3665 11.3186 59.4241L22.0662 55.1254C22.4858 56.603 23.376 57.9035 24.6016 58.8295C25.8272 59.7555 27.3214 60.2565 28.8574 60.2565C30.3935 60.2565 31.8877 59.7555 33.1133 58.8295C34.3389 57.9035 35.2291 56.603 35.6487 55.1254L46.3962 59.4241C48.7746 60.3665 50.8138 62.0036 52.248 64.122C53.6822 66.2404 54.4449 68.7417 54.4366 71.3V82.9939Z" fill="white"/>
<path d="M61.5416 34.6775H58.6995V37.5196H61.5416V34.6775Z" fill="white"/>
<path d="M61.5416 71.6258H58.6995V74.4679H61.5416V71.6258Z" fill="white"/>
<path d="M73.1823 65.6257L71.1726 67.6354L73.1823 69.6451L75.192 67.6354L73.1823 65.6257Z" fill="white"/>
<path d="M80.0157 53.1516H77.1736V55.9938H80.0157V53.1516Z" fill="white"/>
<path d="M73.1832 39.5007L71.1735 41.5103L73.1832 43.52L75.1929 41.5103L73.1832 39.5007Z" fill="white"/>
</svg>
