<svg width="520.058" height="479.058" xmlns="http://www.w3.org/2000/svg">
 <g>
  <title>background</title>
  <rect fill="none" id="canvas_background" height="481.058" width="522.058" y="-1" x="-1"/>
 </g>

 <g>
  <title>Layer 1</title>
  <g stroke="null" id="svg_1">
   <path stroke="null" id="svg_2" fill="#ffffff" d="m468.86474,4.88198l-417.67146,0c-26.57541,0 -48.19328,26.31382 -48.19328,58.66207l0,351.96983c0,32.34826 21.61787,58.66207 48.19328,58.66207l417.67146,0c26.57541,0 48.19328,-26.31382 48.19328,-58.66207l0,-351.96983c0,-32.34826 -21.61787,-58.66207 -48.19328,-58.66207zm0,39.10761c2.18261,0 4.25898,0.5512 6.15721,1.51383l-214.99295,226.81267l-214.99402,-226.81267c1.89824,-0.96133 3.97462,-1.51383 6.15721,-1.51383l417.67253,0l0.00001,0zm0,391.07745l-417.67146,0c-8.86347,0 -16.06478,-8.76431 -16.06478,-19.55446l0,-328.69152l214.37379,226.14914c3.02817,3.18833 6.77744,4.774 10.52671,4.774s7.49854,-1.58437 10.52671,-4.774l214.37379,-226.14914l0,328.69283c-0.00107,10.78885 -7.20131,19.55315 -16.06478,19.55315l0.00001,0z"/>
  </g>
 </g>
</svg>