<svg width="400" height="440" xmlns="http://www.w3.org/2000/svg">
 <defs>
  <linearGradient y2="-0.12534" x2="0.07556" y1="0.97338" x1="0.74464" id="paint0_linear">
   <stop stop-color="#141A40"/>
   <stop stop-opacity="0" stop-color="white" offset="1"/>
  </linearGradient>
  <linearGradient y2="3.33118" x2="-0.75049" y1="2.58323" x1="1.3196" id="paint1_linear">
   <stop stop-color="#141A40"/>
   <stop stop-opacity="0" stop-color="white" offset="1"/>
  </linearGradient>
  <linearGradient y2="0.59506" x2="-0.95008" y1="1.52605" x1="0.69698" id="paint2_linear">
   <stop stop-color="#141A40"/>
   <stop stop-opacity="0" stop-color="white" offset="1"/>
  </linearGradient>
 </defs>
 <g>
  <title>background</title>
  <rect fill="none" id="canvas_background" height="442" width="402" y="-1" x="-1"/>
 </g>
 <g>
  <title>Layer 1</title>
  <rect id="svg_1" fill="#141A40" transform="rotate(138.0679931640625 149.39100646972656,286.46701049804693) " rx="10" height="33.2494" width="22.9793" y="286.467" x="149.391"/>
  <rect id="svg_2" fill="#272F60" transform="rotate(138.0679931640625 164.23899841308594,282.1780090332031) " rx="4" height="47.3775" width="25.4503" y="282.178" x="164.239"/>
  <rect id="svg_3" fill="#272F60" transform="rotate(138.0659942626953 238.79998779296872,253.06698608398438) " height="10.9602" width="11.3137" y="253.067" x="238.8"/>
  <rect id="svg_4" fill="#272F60" transform="rotate(138.0659942626953 272.0710144042969,175.24999999999997) " height="32.7618" width="8.24237" y="175.25" x="272.071"/>
  <rect id="svg_5" fill="#272F60" transform="rotate(138.0659942626953 275.6289978027344,160.86199951171872) " height="16.5923" width="6.78318" y="160.862" x="275.629"/>
  <rect id="svg_6" fill="#141A40" transform="rotate(138.0659942626953 278.2619934082031,172.6210021972656) " rx="3.63754" height="37.5589" width="7.27507" y="172.621" x="278.262"/>
  <rect id="svg_7" fill="#272F60" transform="rotate(138.0659942626953 304.1419982910156,326.9660034179687) " height="10.9602" width="11.3137" y="326.966" x="304.142"/>
  <rect id="svg_8" fill="#272F60" transform="rotate(138.0659942626953 176.93600463867188,185.31201171874997) " height="12.4519" width="11.3137" y="185.312" x="176.936"/>
  <rect id="svg_9" fill="#272F60" transform="rotate(138.0659942626953 111.06900024414062,109.50500488281249) " height="14.4953" width="11.3137" y="109.505" x="111.069"/>
  <rect id="svg_10" fill="#141A40" transform="rotate(138.0659942626953 234.87100219726557,242.33700561523438) " rx="3.09338" height="6.18675" width="19.9756" y="242.337" x="234.871"/>
  <rect id="svg_11" fill="#141A40" transform="rotate(138.0659942626953 259.2019958496093,259.92401123046875) " rx="9.98621" height="19.9724" width="34.6478" y="259.924" x="259.202"/>
  <rect id="svg_12" fill="#141A40" transform="rotate(138.0659942626953 178.93800354003903,167.82901000976562) " rx="9.98621" height="19.9724" width="34.6478" y="167.829" x="178.938"/>
  <rect id="svg_13" fill="#141A40" transform="rotate(138.0659942626953 183.5890045166016,186.08700561523435) " rx="3.13121" height="6.26243" width="19.9756" y="186.087" x="183.589"/>
  <path id="svg_14" fill="white" d="m275.892,189.824c2.215,2.465 2.011,6.259 -0.454,8.473l-101.917,91.547c-2.465,2.215 -6.259,2.011 -8.473,-0.454l-39.156,-43.591c-2.214,-2.465 -2.011,-6.259 0.455,-8.473l101.917,-91.547c2.465,-2.214 6.259,-2.011 8.473,0.454l39.155,43.591z"/>
  <path id="svg_15" fill="url(#paint0_linear)" d="m275.892,189.824c2.215,2.465 2.011,6.259 -0.454,8.473l-101.917,91.547c-2.465,2.215 -6.259,2.011 -8.473,-0.454l-39.156,-43.591c-2.214,-2.465 -2.011,-6.259 0.455,-8.473l101.917,-91.547c2.465,-2.214 6.259,-2.011 8.473,0.454l39.155,43.591z"/>
  <rect id="svg_16" fill="#68458C" transform="rotate(138.0659942626953 330.43499755859375,290.9230041503906) " rx="6" height="82.6257" width="97.4023" y="290.923" x="330.435"/>
  <rect id="svg_17" fill="#68458C" transform="rotate(138.0659942626953 196.57299804687497,141.70100402832028) " rx="6" height="82.6257" width="97.4023" y="141.701" x="196.573"/>
  <rect id="svg_18" fill="#68458C" transform="rotate(138.0659942626953 134.69200134277344,71.82400512695312) " rx="6" height="82.6257" width="97.4023" y="71.824" x="134.692"/>
  <rect id="svg_19" fill="#68458C" transform="rotate(138.0659942626953 326.8991394042968,361.3818359375) " rx="6" height="82.6257" width="97.4023" y="320.069" x="278.198"/>
  <rect id="svg_20" fill="#BBBCC4" transform="rotate(138.0659942626953 238.0790100097656,165.531005859375) " rx="10.6748" height="21.3497" width="63.7732" y="165.531" x="238.079"/>
  <rect id="svg_21" fill="#BBBCC4" transform="rotate(138.0659942626953 183.13800048828125,215.4750061035156) " rx="10.6748" height="21.3497" width="30.3984" y="215.475" x="183.138"/>
  <rect x="-32.00901" y="90.95841" id="svg_22" fill="#68458C" transform="matrix(-0.744412,0.66772,-0.668744,-0.743493,290.328,284.515) " rx="1.68448" height="3.36896" width="6.56532"/>
  <rect id="svg_23" fill="#68458C" transform="rotate(138.0659942626953 191.75199890136716,260.44500732421875) " rx="1.71637" height="7.05892" width="6.56532" y="260.445" x="191.752"/>
  <rect x="-32.01253" y="90.96016" id="svg_24" fill="#68458C" transform="matrix(-0.744449,0.66768,-0.668773,-0.743467,220.849,340.795) " rx="1.71637" height="7.05892" width="6.56532"/>
  <rect x="-32.00901" y="90.95841" id="svg_25" fill="#68458C" transform="matrix(-0.744412,0.66772,-0.668744,-0.743493,285.765,279.496) " rx="1.68448" height="3.36896" width="6.56532"/>
  <rect id="svg_26" fill="#68458C" transform="rotate(138.0659942626953 257.88800048828125,200.531005859375) " rx="1.68448" height="3.36896" width="6.56532" y="200.531" x="257.888"/>
  <rect id="svg_27" fill="#A877D9" transform="rotate(138.0659942626953 355.4020080566407,327.7120056152344) " height="30.5703" width="39.5993" y="327.712" x="355.402"/>
  <rect id="svg_28" fill="#A877D9" transform="rotate(138.0659942626953 381.4079895019531,356.22698974609375) " height="30.5703" width="39.9852" y="356.227" x="381.408"/>
  <rect id="svg_29" fill="#A877D9" transform="rotate(138.0659942626953 322.01739501953125,389.28482055664057) " height="30.5703" width="40.8834" y="373.99967" x="301.57567"/>
  <rect id="svg_30" fill="#A877D9" transform="rotate(138.0659942626953 321.5090026855468,358.22198486328125) " height="30.5703" width="40.7693" y="358.222" x="321.509"/>
  <rect id="svg_31" fill="#A877D9" transform="rotate(138.0659942626953 295.9670104980469,260.92800903320307) " height="30.5703" width="39.5993" y="260.928" x="295.967"/>
  <rect id="svg_32" fill="#A877D9" transform="rotate(138.0659942626953 321.9729919433594,289.44299316406244) " height="30.5703" width="39.9852" y="289.443" x="321.973"/>
  <rect id="svg_33" fill="#A877D9" transform="rotate(138.0659942626953 287.9739990234375,320.04998779296875) " height="30.5703" width="40.8834" y="320.05" x="287.974"/>
  <rect id="svg_34" fill="#A877D9" transform="rotate(138.0659942626953 262.07400512695307,291.4389953613281) " height="30.5703" width="40.7693" y="291.439" x="262.074"/>
  <rect id="svg_35" fill="#A877D9" transform="rotate(138.0659942626953 161.41200256347653,112.33399963378905) " height="30.5703" width="39.5993" y="112.334" x="161.412"/>
  <rect id="svg_36" fill="#A877D9" transform="rotate(138.0659942626953 187.41700744628906,140.85000610351562) " height="30.5703" width="39.9852" y="140.85" x="187.417"/>
  <rect id="svg_37" fill="#A877D9" transform="rotate(138.0659942626953 153.41900634765625,171.45599365234375) " height="30.5703" width="40.8834" y="171.456" x="153.419"/>
  <rect id="svg_38" fill="#A877D9" transform="rotate(138.0659942626953 127.51800537109376,142.84500122070312) " height="30.5703" width="40.7693" y="142.845" x="127.518"/>
  <rect id="svg_39" fill="#A877D9" transform="rotate(138.0659942626953 99.91400146484375,42.11099243164062) " height="30.5703" width="39.5993" y="42.111" x="99.914"/>
  <rect id="svg_40" fill="#A877D9" transform="rotate(138.0659942626953 125.91900634765624,70.62600708007812) " height="30.5703" width="39.9852" y="70.626" x="125.919"/>
  <rect id="svg_41" fill="#A877D9" transform="rotate(138.0659942626953 91.91999816894528,101.23300170898439) " height="30.5703" width="40.8834" y="101.233" x="91.92"/>
  <rect id="svg_42" fill="#A877D9" transform="rotate(138.0659942626953 66.0199966430664,72.62199401855469) " height="30.5703" width="40.7693" y="72.622" x="66.02"/>
  <circle id="svg_43" fill="#68458C" transform="rotate(47.82600021362305 225.44500732421878,218.48098754882812) " r="2.72266" cy="218.481" cx="225.445"/>
  <circle id="svg_44" fill="#68458C" transform="rotate(47.82600021362305 217.6230010986328,225.56698608398438) " r="2.72266" cy="225.567" cx="217.623"/>
  <circle id="svg_45" fill="#68458C" transform="rotate(47.82600021362305 270.2239990234375,255.47198486328122) " r="2.72266" cy="255.472" cx="270.224"/>
  <circle id="svg_46" fill="#68458C" transform="rotate(47.82600021362305 278.2260131835938,264.30499267578125) " r="2.72266" cy="264.305" cx="278.226"/>
  <circle id="svg_47" fill="#68458C" transform="rotate(47.82600021362305 270.55700683593756,271.25299072265625) " r="2.72266" cy="271.253" cx="270.557"/>
  <circle id="svg_48" fill="#68458C" transform="rotate(47.82600021362305 262.55398559570324,262.4200134277344) " r="2.72266" cy="262.42" cx="262.554"/>
  <circle id="svg_49" fill="#68458C" transform="rotate(47.82600021362305 236.69198608398438,285.3399963378906) " r="2.72266" cy="285.34" cx="236.692"/>
  <circle id="svg_50" fill="#68458C" transform="rotate(47.82600021362305 244.69400024414068,294.17300415039057) " r="2.72266" cy="294.173" cx="244.694"/>
  <circle id="svg_51" fill="#68458C" transform="rotate(47.82600021362305 237.02398681640634,301.12100219726557) " r="2.72266" cy="301.121" cx="237.024"/>
  <circle id="svg_52" fill="#68458C" transform="rotate(47.82600021362305 229.02200317382818,292.28799438476557) " r="2.72266" cy="292.288" cx="229.022"/>
  <circle id="svg_53" fill="#68458C" transform="rotate(47.82600021362305 261.95199584960943,315.0390014648437) " r="2.72266" cy="315.039" cx="261.952"/>
  <circle id="svg_54" fill="#68458C" transform="rotate(47.82600021362305 269.9540100097655,323.87200927734375) " r="2.72266" cy="323.872" cx="269.954"/>
  <circle id="svg_55" fill="#68458C" transform="rotate(47.82600021362305 262.28399658203125,330.8200073242187) " r="2.72266" cy="330.82" cx="262.284"/>
  <circle id="svg_56" fill="#68458C" transform="rotate(47.82600021362305 254.28201293945318,321.9869995117187) " r="2.72266" cy="321.987" cx="254.282"/>
  <circle id="svg_57" fill="#68458C" transform="rotate(47.82600021362305 295.70098876953125,284.2699890136718) " r="2.72266" cy="284.27" cx="295.701"/>
  <circle id="svg_58" fill="#68458C" transform="rotate(47.82600021362305 303.70300292968744,293.1029968261719) " r="2.72266" cy="293.103" cx="303.703"/>
  <circle id="svg_59" fill="#68458C" transform="rotate(47.82600021362305 296.03298950195307,300.0509948730469) " r="2.72266" cy="300.051" cx="296.033"/>
  <circle id="svg_60" fill="#68458C" transform="rotate(47.82600021362305 288.03100585937494,291.2179870605469) " r="2.72266" cy="291.218" cx="288.031"/>
  <circle id="svg_61" fill="#68458C" transform="rotate(47.82600021362305 331.4100036621095,321.4840087890625) " r="2.72266" cy="321.484" cx="331.41"/>
  <circle id="svg_62" fill="#68458C" transform="rotate(47.82600021362305 339.4119873046875,330.3169860839843) " r="2.72266" cy="330.317" cx="339.412"/>
  <circle id="svg_63" fill="#68458C" transform="rotate(47.82600021362305 331.74200439453125,337.2650146484375) " r="2.72266" cy="337.265" cx="331.742"/>
  <circle id="svg_64" fill="#68458C" transform="rotate(47.82600021362305 323.7399902343751,328.4320068359375) " r="2.72266" cy="328.432" cx="323.74"/>
  <circle id="svg_65" fill="#68458C" transform="rotate(47.82600021362305 297.8779907226564,351.3519897460937) " r="2.72266" cy="351.352" cx="297.878"/>
  <circle id="svg_66" fill="#68458C" transform="rotate(47.82600021362305 305.8789978027345,360.18499755859375) " r="2.72266" cy="360.185" cx="305.879"/>
  <circle id="svg_67" fill="#68458C" transform="rotate(47.82600021362305 298.2099914550781,367.1329956054687) " r="2.72266" cy="367.133" cx="298.21"/>
  <circle id="svg_68" fill="#68458C" transform="rotate(47.82600021362305 290.2080078125001,358.2999877929687) " r="2.72266" cy="358.3" cx="290.208"/>
  <circle id="svg_69" fill="#68458C" transform="rotate(47.82600021362305 323.13699340820324,381.0509948730469) " r="2.72266" cy="381.051" cx="323.137"/>
  <circle id="svg_70" fill="#68458C" transform="rotate(47.82600021362305 331.1390075683593,389.8840026855469) " r="2.72266" cy="389.884" cx="331.139"/>
  <circle id="svg_71" fill="#68458C" transform="rotate(47.82600021362305 323.47000122070307,396.8330078125) " r="2.72266" cy="396.833" cx="323.47"/>
  <circle id="svg_72" fill="#68458C" transform="rotate(47.82600021362305 315.46701049804693,387.99999999999994) " r="2.72266" cy="388" cx="315.467"/>
  <circle id="svg_73" fill="#68458C" transform="rotate(47.82600021362305 356.885986328125,350.28201293945307) " r="2.72266" cy="350.282" cx="356.886"/>
  <circle id="svg_74" fill="#68458C" transform="rotate(47.82600021362305 364.88800048828125,359.11499023437494) " r="2.72266" cy="359.115" cx="364.888"/>
  <circle id="svg_75" fill="#68458C" transform="rotate(47.82600021362305 357.2179870605469,366.06298828125) " r="2.72266" cy="366.063" cx="357.218"/>
  <circle id="svg_76" fill="#68458C" transform="rotate(47.82600021362305 349.2160034179689,357.230010986328) " r="2.72266" cy="357.23" cx="349.216"/>
  <circle id="svg_77" fill="#68458C" transform="rotate(47.82600021362305 135.5509948730469,106.81199645996092) " r="2.72266" cy="106.812" cx="135.551"/>
  <circle id="svg_78" fill="#68458C" transform="rotate(47.82600021362305 143.55299377441412,115.64500427246091) " r="2.72266" cy="115.645" cx="143.553"/>
  <circle id="svg_79" fill="#68458C" transform="rotate(47.82600021362305 135.88299560546875,122.59300231933595) " r="2.72266" cy="122.593" cx="135.883"/>
  <circle id="svg_80" fill="#68458C" transform="rotate(47.82600021362305 127.88099670410153,113.75999450683597) " r="2.72266" cy="113.76" cx="127.881"/>
  <circle id="svg_81" fill="#68458C" transform="rotate(47.82600021362305 102.0180053710938,136.67999267578125) " r="2.72266" cy="136.68" cx="102.018"/>
  <circle id="svg_82" fill="#68458C" transform="rotate(47.82600021362305 110.02000427246095,145.51300048828125) " r="2.72266" cy="145.513" cx="110.02"/>
  <circle id="svg_83" fill="#68458C" transform="rotate(47.82600021362305 102.35099792480472,152.46099853515622) " r="2.72266" cy="152.461" cx="102.351"/>
  <circle id="svg_84" fill="#68458C" transform="rotate(47.82600021362305 94.34800720214844,143.6280059814453) " r="2.72266" cy="143.628" cx="94.348"/>
  <circle id="svg_85" fill="#68458C" transform="rotate(47.82600021362305 127.27799987792967,166.37899780273435) " r="2.72266" cy="166.379" cx="127.278"/>
  <circle id="svg_86" fill="#68458C" transform="rotate(47.82600021362305 135.2799987792969,175.21200561523438) " r="2.72266" cy="175.212" cx="135.28"/>
  <circle id="svg_87" fill="#68458C" transform="rotate(47.82600021362305 127.61000061035166,182.16000366210935) " r="2.72266" cy="182.16" cx="127.61"/>
  <circle id="svg_88" fill="#68458C" transform="rotate(47.82600021362305 119.60899353027352,173.32699584960935) " r="2.72266" cy="173.327" cx="119.609"/>
  <circle id="svg_89" fill="#68458C" transform="rotate(47.82600021362305 161.02699279785156,135.6100006103516) " r="2.72266" cy="135.61" cx="161.027"/>
  <circle id="svg_90" fill="#68458C" transform="rotate(47.82600021362305 169.0290069580078,144.44299316406247) " r="2.72266" cy="144.443" cx="169.029"/>
  <circle id="svg_91" fill="#68458C" transform="rotate(47.82600021362305 161.35899353027344,151.39100646972656) " r="2.72266" cy="151.391" cx="161.359"/>
  <circle id="svg_92" fill="#68458C" transform="rotate(47.82600021362305 153.35699462890634,142.55799865722653) " r="2.72266" cy="142.558" cx="153.357"/>
  <circle id="svg_93" fill="#68458C" transform="rotate(47.82600021362305 73.4990005493164,36.78800201416015) " r="2.72266" cy="36.788" cx="73.499"/>
  <circle id="svg_94" fill="#68458C" transform="rotate(47.82600021362305 81.50099945068361,45.62100219726561) " r="2.72266" cy="45.621" cx="81.501"/>
  <circle id="svg_95" fill="#68458C" transform="rotate(47.82600021362305 73.83100128173831,52.570007324218736) " r="2.72266" cy="52.57" cx="73.831"/>
  <circle id="svg_96" fill="#68458C" transform="rotate(47.82600021362305 65.8290023803711,43.73699951171875) " r="2.72266" cy="43.737" cx="65.829"/>
  <circle id="svg_97" fill="#68458C" transform="rotate(47.82600021362305 39.96640014648437,66.656005859375) " r="2.72266" cy="66.656" cx="39.9664"/>
  <circle id="svg_98" fill="#68458C" transform="rotate(47.82600021362305 47.9683990478516,75.48899841308592) " r="2.72266" cy="75.489" cx="47.9684"/>
  <circle id="svg_99" fill="#68458C" transform="rotate(47.82600021362305 40.29889678955079,82.43699645996092) " r="2.72266" cy="82.437" cx="40.2989"/>
  <circle id="svg_100" fill="#68458C" transform="rotate(47.82600021362305 32.29699707031255,73.60400390624997) " r="2.72266" cy="73.604" cx="32.297"/>
  <circle id="svg_101" fill="#68458C" transform="rotate(47.82600021362305 65.22599792480476,96.35499572753905) " r="2.72266" cy="96.355" cx="65.226"/>
  <circle id="svg_102" fill="#68458C" transform="rotate(47.82600021362305 73.2279968261719,105.1889953613281) " r="2.72266" cy="105.189" cx="73.228"/>
  <circle id="svg_103" fill="#68458C" transform="rotate(47.82600021362305 65.55899810791023,112.13699340820311) " r="2.72266" cy="112.137" cx="65.559"/>
  <circle id="svg_104" fill="#68458C" transform="rotate(47.82600021362305 57.55629730224611,103.30400085449217) " r="2.72266" cy="103.304" cx="57.5563"/>
  <circle id="svg_105" fill="#68458C" transform="rotate(47.82600021362305 98.97500610351562,65.58599853515624) " r="2.72266" cy="65.586" cx="98.975"/>
  <circle id="svg_106" fill="#68458C" transform="rotate(47.82600021362305 106.97700500488283,74.41900634765625) " r="2.72266" cy="74.419" cx="106.977"/>
  <circle id="svg_107" fill="#68458C" transform="rotate(47.82600021362305 99.30700683593746,81.36700439453125) " r="2.72266" cy="81.367" cx="99.307"/>
  <circle id="svg_108" fill="#68458C" transform="rotate(47.82600021362305 91.30499267578128,72.53399658203125) " r="2.72266" cy="72.534" cx="91.305"/>
  <rect id="svg_109" fill="white" transform="rotate(47.82600021362305 265.8529968261719,125.78599548339845) " rx="5" height="16.2351" width="48.3857" y="125.786" x="265.853"/>
  <rect id="svg_110" fill="url(#paint1_linear)" transform="rotate(47.82600021362305 265.8529968261719,125.78599548339845) " rx="5" height="16.2351" width="48.3857" y="125.786" x="265.853"/>
  <rect id="svg_111" fill="#272F60" transform="rotate(99.79119873046875 337.25698852539057,113.8350067138672) " height="5.06739" width="32.4461" y="113.835" x="337.257"/>
  <rect id="svg_112" fill="#272F60" transform="rotate(99.79119873046875 317.8179931640625,93.49400329589842) " height="5.06739" width="32.4461" y="93.494" x="317.818"/>
  <rect x="30.47944" y="-91.43848" id="svg_113" fill="#272F60" transform="matrix(-0.997392,0.0721802,0.0721802,0.997392,353.213,181.757) " height="5.06739" width="32.4461"/>
  <rect x="30.47944" y="-91.43848" id="svg_114" fill="#272F60" transform="matrix(-0.997392,0.0721802,0.0721802,0.997392,370.357,203.163) " height="5.06739" width="32.4461"/>
  <rect x="13.20929" y="-95.47517" id="svg_115" fill="#272F60" transform="matrix(-0.967281,0.253709,0.253709,0.967281,376.311,179.281) " height="4.06636" width="19.6118"/>
  <rect id="svg_116" fill="#272F60" transform="rotate(110.3489990234375 340.8039855957031,92.95100402832037) " height="4.06636" width="19.6118" y="92.951" x="340.804"/>
  <path id="svg_117" fill="white" d="m302.923,124.923l-36.949,-40.786c0,0 -19.588,32.448 10.045,65.158c29.633,32.711 63.852,16.414 63.852,16.414l-36.948,-40.786z"/>
  <path id="svg_118" fill="url(#paint2_linear)" d="m302.923,124.923l-36.949,-40.786c0,0 -19.588,32.448 10.045,65.158c29.633,32.711 63.852,16.414 63.852,16.414l-36.948,-40.786z"/>
  <circle id="svg_119" fill="#141A40" transform="rotate(47.82600021362305 341.89099121093756,89.80599975585938) " r="5.65557" cy="89.806" cx="341.891"/>
  <rect id="svg_120" fill="#141A40" transform="rotate(47.82600021362305 315.27398681640625,87.01600646972658) " rx="3.15808" height="6.31616" width="39.875" y="87.016" x="315.274"/>
  <rect id="svg_121" fill="#141A40" transform="rotate(47.82600021362305 268.99301147460943,74.88600158691405) " rx="4.2243" height="8.44861" width="120" y="74.886" x="268.993"/>
 </g>
</svg>