<svg width="87" height="86" viewBox="0 0 87 86" fill="none" xmlns="http://www.w3.org/2000/svg">
<path d="M43.5238 42.7996C41.3163 42.7996 39.5205 44.5954 39.5205 46.803V49.8111H33.5087C31.3011 49.8111 29.5053 51.607 29.5053 53.8144C29.5053 56.0218 31.3011 57.8177 33.5087 57.8177H43.524C45.7314 57.8177 47.5272 56.0218 47.5272 53.8144V46.8028C47.5272 44.5956 45.7314 42.7996 43.5238 42.7996ZM32.0202 53.8146C32.0202 52.9937 32.6878 52.3261 33.5087 52.3261H39.5205V53.8146C39.5205 54.3405 39.6235 54.8425 39.8086 55.303H33.5087C32.6878 55.303 32.0202 54.6354 32.0202 53.8146ZM45.0123 53.8146C45.0123 54.6354 44.3447 55.303 43.5238 55.303C42.703 55.303 42.0354 54.6354 42.0354 53.8146V46.803C42.0354 45.9821 42.7032 45.3145 43.5238 45.3145C44.3445 45.3145 45.0123 45.9821 45.0123 46.803V53.8146Z" fill="white"/>
<path d="M85.5675 60.6926L74.9404 42.288C73.7678 40.2574 71.6679 39.045 69.3232 39.045C69.3233 39.045 69.323 39.045 69.3232 39.045C69.2224 39.045 69.1227 39.0502 69.0229 39.0547C68.6301 38.3774 68.2129 37.7195 67.7725 37.0816V22.8231H68.8388C70.6177 22.8231 72.2109 21.903 73.1007 20.3619C73.9906 18.8207 73.9909 16.9806 73.1013 15.4393L69.9779 10.0307C69.6307 9.42932 68.8613 9.22344 68.2602 9.57065C67.6588 9.91787 67.4528 10.6869 67.8002 11.2883L70.9235 16.6968C71.3584 17.4504 71.3582 18.3504 70.9228 19.1043C70.4876 19.8581 69.7085 20.3081 68.8388 20.3081H66.5151C65.8206 20.3081 65.2576 20.8711 65.2576 21.5655V33.9256C63.0231 31.4842 60.4053 29.4503 57.5236 27.8941V21.5655C57.5236 20.8711 56.9606 20.3081 56.2662 20.3081H53.9424C53.0716 20.3081 52.292 19.8578 51.8568 19.1037C51.4219 18.35 51.422 17.4504 51.8575 16.6969L59.3066 3.79871C59.7415 3.04525 60.5205 2.59543 61.3905 2.59543C62.2604 2.59543 63.0394 3.04525 63.4748 3.79921L65.2855 6.93273C65.6329 7.53395 66.4021 7.73967 67.0033 7.39228C67.6045 7.04489 67.8104 6.27568 67.4628 5.67446L65.6525 2.54144C64.7631 1.0005 63.1696 0.0805664 61.3905 0.0805664C59.6113 0.0805664 58.018 1.0005 57.1288 2.54128L49.6799 15.4392C48.7897 16.9798 48.7892 18.8197 49.6786 20.3609C50.5683 21.9027 52.1623 22.8231 53.9424 22.8231H55.0087V26.6848C51.4353 25.1724 47.5416 24.3555 43.5242 24.3555C38.6663 24.3555 34.0797 25.5382 30.036 27.6296L23.3441 16.0394C22.171 14.0087 20.0713 12.7967 17.7262 12.7967C17.7259 12.7967 17.7252 12.7967 17.7251 12.7967C15.3805 12.7972 13.2813 14.0096 12.1095 16.0396L1.48139 34.4435C0.308455 36.4748 0.308288 38.9 1.48088 40.931C2.65348 42.962 4.75356 44.1745 7.09875 44.1745H9.15759V81.2889C9.15759 83.7968 11.198 85.8374 13.7061 85.8374H21.747C24.2551 85.8374 26.2955 83.7968 26.2955 81.2889V77.7147C31.2594 81.2999 37.2562 83.2741 43.524 83.2741C49.7341 83.2741 55.7592 81.3142 60.7544 77.71V81.2892C60.7544 83.797 62.7946 85.8372 65.3024 85.8372H73.3438C75.8516 85.8372 77.8918 83.797 77.8918 81.2892V70.423H79.95C82.295 70.423 84.3951 69.2105 85.5675 67.1795C86.7401 65.1486 86.7401 62.7236 85.5675 60.6926ZM43.5242 80.7591C35.4664 80.7591 27.8963 77.1945 22.7546 70.9794C22.3118 70.4443 21.519 70.3695 20.9841 70.8121C20.4492 71.2549 20.3742 72.0474 20.8168 72.5826C21.7364 73.6941 22.7285 74.7266 23.7808 75.6787V81.2885C23.7808 82.4098 22.8685 83.3222 21.7472 83.3222H13.7063C12.585 83.3222 11.6726 82.4098 11.6726 81.2885V42.9167C11.6726 42.2223 11.1096 41.6593 10.4152 41.6593H7.09892C5.66293 41.6593 4.377 40.9169 3.65892 39.6732C2.94085 38.4295 2.94118 36.9446 3.65926 35.7008L14.2872 17.2968C15.0046 16.054 16.2899 15.3118 17.7252 15.3114C19.161 15.3114 20.448 16.0538 21.1662 17.297L27.8539 28.8798C19.5753 34.1005 14.0634 43.3253 14.0634 53.8146C14.0634 58.8789 15.3705 63.8743 17.8436 68.2607C18.0746 68.6704 18.501 68.9008 18.9401 68.9008C19.1493 68.9008 19.3612 68.8485 19.5565 68.7385C20.1615 68.3975 20.3754 67.6306 20.0344 67.0256C17.7735 63.0155 16.5784 58.4472 16.5784 53.8148C16.5784 38.9577 28.6664 26.8706 43.5244 26.8706C52.9201 26.8706 61.5786 31.7487 66.474 39.6944C65.3359 40.2476 64.3712 41.1355 63.706 42.2879L63.4585 42.7166C59.4614 35.5292 51.8777 31.0015 43.5244 31.0015C30.9452 31.0015 20.7112 41.2355 20.7112 53.8146C20.7112 66.3938 30.9452 76.6278 43.5244 76.6278C49.3832 76.6278 54.9149 74.4281 59.1606 70.423H60.7547V74.5289C55.9243 78.5505 49.8285 80.7591 43.5242 80.7591ZM53.077 67.1793C53.7694 68.3789 54.7871 69.2898 55.986 69.8372C55.5821 70.1527 55.1682 70.452 54.7445 70.7345L54.0259 69.49C53.6787 68.8886 52.9097 68.6824 52.3083 69.0297C51.7069 69.377 51.5008 70.146 51.8481 70.7474L52.569 71.9961C50.1599 73.1977 47.5212 73.9067 44.7813 74.0734V70.8104C44.7813 70.116 44.2183 69.553 43.5239 69.553C42.8294 69.553 42.2664 70.116 42.2664 70.8104V74.0729C39.4853 73.902 36.8541 73.1689 34.4849 71.9854L35.1997 70.7474C35.5469 70.146 35.3408 69.377 34.7394 69.0297C34.1379 68.6822 33.369 68.8886 33.0218 69.49L32.3089 70.7246C30.0538 69.2239 28.1146 67.2848 26.6139 65.0296L27.8484 64.3169C28.4498 63.9697 28.6558 63.2006 28.3086 62.5992C27.9612 61.9978 27.1923 61.7918 26.591 62.139L25.3531 62.8537C24.1698 60.4846 23.4366 57.8535 23.2658 55.0722H26.5281C27.2225 55.0722 27.7855 54.5093 27.7855 53.8148C27.7855 53.1204 27.2225 52.5574 26.5281 52.5574H23.2658C23.4366 49.7763 24.1698 47.1451 25.3531 44.7759L26.591 45.4906C26.789 45.605 27.0052 45.6593 27.2185 45.6593C27.6531 45.6593 28.0757 45.4338 28.3086 45.0304C28.6558 44.429 28.4498 43.66 27.8484 43.3127L26.6139 42.6C28.1146 40.3447 30.0536 38.4056 32.3089 36.9049L33.0218 38.1395C33.2547 38.5429 33.6773 38.7684 34.1119 38.7684C34.3252 38.7684 34.5414 38.7141 34.7394 38.5997C35.3408 38.2525 35.5469 37.4835 35.1997 36.8821L34.4849 35.6441C36.8541 34.4608 39.4853 33.7276 42.2664 33.5566V36.819C42.2664 37.5135 42.8294 38.0765 43.5239 38.0765C44.2183 38.0765 44.7813 37.5135 44.7813 36.819V33.5581C47.5367 33.7274 50.1753 34.4499 52.5661 35.6382L51.8481 36.8819C51.5008 37.4833 51.7069 38.2523 52.3083 38.5996C52.5063 38.7139 52.7226 38.7682 52.9358 38.7682C53.3704 38.7682 53.7931 38.5426 54.0259 38.1393L54.7457 36.8926C56.9854 38.3774 58.9297 40.308 60.4439 42.5938L59.199 43.3126C58.5976 43.6598 58.3916 44.4288 58.7388 45.0302C58.9717 45.4336 59.3943 45.6591 59.8289 45.6591C60.0422 45.6591 60.2584 45.6046 60.4564 45.4904L61.6979 44.7737C61.7868 44.9523 61.8742 45.132 61.9581 45.3139L53.0773 60.6926C51.9047 62.7233 51.9046 65.1483 53.077 67.1793ZM83.3896 65.922C82.6717 67.1656 81.386 67.9079 79.95 67.9079H76.6344C75.9399 67.9079 75.377 68.4709 75.377 69.1654V81.289C75.377 82.4101 74.4649 83.3222 73.3438 83.3222H65.3024C64.1813 83.3222 63.2692 82.4101 63.2692 81.289V69.1654C63.2692 68.4709 62.7062 67.9079 62.0118 67.9079H58.6945C57.2587 67.9079 55.9728 67.1656 55.2549 65.9219C54.5369 64.6784 54.5371 63.1936 55.255 61.9501L65.8833 43.5454C66.6014 42.3021 67.8872 41.5599 69.3228 41.5601C70.7585 41.5601 72.0443 42.3024 72.7623 43.5458L83.3895 61.9504C84.1076 63.1937 84.1077 64.6785 83.3896 65.922Z" fill="white"/>
</svg>
