<svg width="91" height="103" viewBox="0 0 91 103" fill="none" xmlns="http://www.w3.org/2000/svg">
<path d="M80.8652 -0.000976562H9.61523C4.44023 0.00457563 0.246328 3.82577 0.240234 8.54087V54.6668C0.246328 59.3819 4.44023 63.2031 9.61523 63.2087H35.254L32.5765 71.7505H26.4902V75.1672H63.9902V71.7505H57.904L55.2265 63.2087H80.8652C86.0402 63.2031 90.2341 59.3819 90.2402 54.6668V8.54087C90.2341 3.82577 86.0402 0.00457563 80.8652 -0.000976562ZM36.4765 71.7505L39.154 63.2087H51.3265L54.004 71.7505H36.4765ZM86.4902 54.6668C86.4902 57.4974 83.9719 59.7919 80.8652 59.7919H9.61523C6.50859 59.7919 3.99023 57.4974 3.99023 54.6668V51.2501H86.4902V54.6668ZM86.4902 47.8333H3.99023V8.54087C3.99023 5.71031 6.50859 3.41576 9.61523 3.41576H80.8652C83.9719 3.41576 86.4902 5.71031 86.4902 8.54087V47.8333Z" fill="white"/>
<path d="M60.2402 78.5828H7.74023C6.70477 78.5828 5.86523 79.3478 5.86523 80.2912V100.792C5.86523 101.735 6.70477 102.5 7.74023 102.5H60.2402C61.2757 102.5 62.1152 101.735 62.1152 100.792V80.2912C62.1152 79.3478 61.2757 78.5828 60.2402 78.5828ZM58.3652 99.0833H9.61523V81.9996H58.3652V99.0833Z" fill="white"/>
<path d="M17.116 92.2509H13.366V95.6676H17.116V92.2509Z" fill="white"/>
<path d="M17.116 85.419H13.366V88.8358H17.116V85.419Z" fill="white"/>
<path d="M24.6143 85.419H20.8643V88.8358H24.6143V85.419Z" fill="white"/>
<path d="M32.1152 85.419H28.3652V88.8358H32.1152V85.419Z" fill="white"/>
<path d="M47.1145 85.419H43.3645V88.8358H47.1145V85.419Z" fill="white"/>
<path d="M39.616 85.419H35.866V88.8358H39.616V85.419Z" fill="white"/>
<path d="M54.6155 92.2509H50.8655V95.6676H54.6155V92.2509Z" fill="white"/>
<path d="M54.6155 85.419H50.8655V88.8358H54.6155V85.419Z" fill="white"/>
<path d="M47.1143 92.2509H20.8643V95.6676H47.1143V92.2509Z" fill="white"/>
<path d="M75.2395 78.5828C70.0619 78.5828 65.8645 82.4072 65.8645 87.1247V93.9582C65.8645 98.6756 70.0619 102.5 75.2395 102.5C80.4171 102.5 84.6145 98.6756 84.6145 93.9582V87.1247C84.6145 82.4072 80.4171 78.5828 75.2395 78.5828ZM80.8645 93.9582C80.8645 96.7887 78.3461 99.0833 75.2395 99.0833C72.1329 99.0833 69.6145 96.7887 69.6145 93.9582V87.1247C69.6145 84.2941 72.1329 81.9996 75.2395 81.9996C78.3461 81.9996 80.8645 84.2941 80.8645 87.1247V93.9582Z" fill="white"/>
<path d="M77.1152 85.419H73.3652V88.8358H77.1152V85.419Z" fill="white"/>
<path d="M47.1808 14.9393L39.6738 38.8428L43.2775 39.7823L50.7845 15.8789L47.1808 14.9393Z" fill="white"/>
<path d="M35.1894 20.1017L32.7894 17.4776L21.5394 26.0195C20.7442 26.6238 20.6371 27.7009 21.3003 28.4257C21.3728 28.5047 21.4527 28.5778 21.5394 28.6435L32.7894 37.1854L35.1894 34.5613L25.6681 27.3315L35.1894 20.1017Z" fill="white"/>
<path d="M69.1801 26.2373C69.1077 26.1583 69.0277 26.0852 68.941 26.0195L57.691 17.4776L55.291 20.1017L64.8123 27.3315L55.291 34.5613L57.691 37.1854L68.941 28.6435C69.7362 28.0392 69.8434 26.9621 69.1801 26.2373Z" fill="white"/>
</svg>
